<?xml version="1.0" encoding="UTF-8" standalone="no"?>
<!-- Created with Inkscape (http://www.inkscape.org/) -->

<svg
   version="1.1"
   id="svg1"
   width="134"
   height="134"
   viewBox="0 0 134 134"
   sodipodi:docname="pfp.svg"
   inkscape:version="1.3.2 (091e20e, 2023-11-25)"
   inkscape:export-filename="pfp.svg"
   inkscape:export-xdpi="96"
   inkscape:export-ydpi="96"
   xmlns:inkscape="http://www.inkscape.org/namespaces/inkscape"
   xmlns:sodipodi="http://sodipodi.sourceforge.net/DTD/sodipodi-0.dtd"
   xmlns="http://www.w3.org/2000/svg"
   xmlns:svg="http://www.w3.org/2000/svg">
  <defs
     id="defs1" />
  <sodipodi:namedview
     id="namedview1"
     pagecolor="#ffffff"
     bordercolor="#000000"
     borderopacity="0.25"
     inkscape:showpageshadow="2"
     inkscape:pageopacity="0.0"
     inkscape:pagecheckerboard="0"
     inkscape:deskcolor="#d1d1d1"
     inkscape:zoom="4.613596"
     inkscape:cx="13.655292"
     inkscape:cy="75.645982"
     inkscape:window-width="1920"
     inkscape:window-height="1015"
     inkscape:window-x="0"
     inkscape:window-y="0"
     inkscape:window-maximized="1"
     inkscape:current-layer="g1" />
  <g
     inkscape:groupmode="layer"
     inkscape:label="Image"
     id="g1">
    <rect
       style="fill:#f9f9f9;stroke-width:1.04534"
       id="rect2"
       width="62.48727"
       height="104.81189"
       x="47.425747"
       y="27.529934" />
    <rect
       style="fill:#f9f9f9"
       id="rect2-7"
       width="57.927822"
       height="103.46594"
       x="19.362431"
       y="28.820339" />
    <rect
       style="fill:#f9f9f9;stroke-width:0.860758"
       id="rect2-7-8"
       width="56.234615"
       height="78.966354"
       x="5.0529537"
       y="40.462551" />
    <path
       style="fill:#000000"
       d="m 17.481279,128.1613 0.689996,-5.94505 -6.335637,-0.68008 L 5.5,120.85608 3.9305724,120.41796 2.3611448,119.97985 3.1075693,114.73992 3.8539938,109.5 3.9269969,106.75 4,104 H 2 0 V 71.361905 38.72381 l 6.4129066,0.657022 6.4129064,0.657021 0.705934,-7.533356 0.705933,-7.533357 0.63116,-0.37158 0.63116,-0.37158 14.436275,1.921518 14.436276,1.921518 1.204887,-0.462358 1.204887,-0.462359 L 47.492654,20.07315 48.202983,13 h 2.591649 2.591649 l 27.556859,3.511571 27.55686,3.51157 2.07394,0.463295 2.07395,0.463294 -0.75094,5.275135 -0.75094,5.275135 -0.073,2.66468 -0.073,2.66468 7.5,0.702808 7.5,0.702807 v 2.437335 2.437334 l -5.50952,43.195178 -5.50952,43.195178 -0.47441,2.11008 -0.47442,2.11008 -48.620422,0.19309 -48.620424,0.19309 z M 103.68353,84.75 109.75264,37.5 109.62632,37.355495 109.5,37.210989 78.5,33.227147 47.5,29.243305 47.335527,29.371653 47.171053,29.5 l -1.017204,7.348344 -1.017205,7.348345 -0.39014,0.39014 -0.39014,0.39014 L 29,43 13.643636,41.023031 13.431853,41.261515 13.22007,41.5 l -3.6375902,29 -3.6375902,29 -0.4618537,2.13189 -0.4618536,2.13189 7.7394087,0.86811 L 20.5,105.5 l -0.03769,3 -0.03769,3 -0.642812,5.06099 -0.642813,5.06098 38.680499,5.05515 L 96.5,131.73227 97.057209,131.86613 97.614418,132 Z M 68,112.65634 l -15.5,-1.98261 -0.317071,-0.23727 -0.317071,-0.23727 1.082307,-7.7815 1.082307,-7.781495 0.416805,-0.416806 0.416806,-0.416805 12.317958,1.617674 L 79.5,97.037932 83.048588,97.572836 86.597175,98.107739 85.68365,105.80387 84.770125,113.5 84.135062,114.06947 83.5,114.63895 Z"
       id="path2" />
    <rect
       style="fill:#000000"
       id="rect1-3"
       width="17.168854"
       height="16.685734"
       x="46.319195"
       y="56.028713"
       ry="0"
       transform="rotate(5.6792595)" />
    <rect
       style="fill:#000000"
       id="rect1-3-2"
       width="17.168854"
       height="16.685734"
       x="79.554817"
       y="56.995213"
       ry="0"
       transform="rotate(5.6792595)" />
  </g>
</svg>
